<mxfile host="Electron" agent="Mozilla/5.0 (Windows NT 10.0; Win64; x64) AppleWebKit/537.36 (KHTML, like Gecko) draw.io/28.1.2 Chrome/138.0.7204.243 Electron/37.4.0 Safari/537.36" version="28.1.2">
  <diagram name="Trang-1" id="Jed1r8KYlvTtbcGKBD8q">
    <mxGraphModel dx="926" dy="603" grid="1" gridSize="10" guides="1" tooltips="1" connect="1" arrows="1" fold="1" page="1" pageScale="1" pageWidth="827" pageHeight="1169" math="0" shadow="0">
      <root>
        <mxCell id="0" />
        <mxCell id="1" parent="0" />
        <mxCell id="m0M_s_L7UmJVFSEreQ84-6" value="" style="ellipse;html=1;shape=startState;fillColor=#000000;strokeColor=#ff0000;" vertex="1" parent="1">
          <mxGeometry x="100" y="10" width="30" height="30" as="geometry" />
        </mxCell>
        <mxCell id="m0M_s_L7UmJVFSEreQ84-7" value="" style="edgeStyle=orthogonalEdgeStyle;html=1;verticalAlign=bottom;endArrow=open;endSize=8;strokeColor=#ff0000;rounded=0;" edge="1" source="m0M_s_L7UmJVFSEreQ84-6" parent="1" target="m0M_s_L7UmJVFSEreQ84-12">
          <mxGeometry relative="1" as="geometry">
            <mxPoint x="120" y="100" as="targetPoint" />
          </mxGeometry>
        </mxCell>
        <mxCell id="m0M_s_L7UmJVFSEreQ84-12" value="" style="line;strokeWidth=4;html=1;perimeter=backbonePerimeter;points=[];outlineConnect=0;" vertex="1" parent="1">
          <mxGeometry x="35" y="90" width="295" height="10" as="geometry" />
        </mxCell>
        <mxCell id="m0M_s_L7UmJVFSEreQ84-13" value="Nhap ma so sach/tap chi" style="rounded=1;whiteSpace=wrap;html=1;arcSize=40;fontColor=#000000;fillColor=#ffffc0;strokeColor=#ff0000;" vertex="1" parent="1">
          <mxGeometry x="20" y="160" width="120" height="40" as="geometry" />
        </mxCell>
        <mxCell id="m0M_s_L7UmJVFSEreQ84-14" value="" style="edgeStyle=orthogonalEdgeStyle;html=1;verticalAlign=bottom;endArrow=open;endSize=8;strokeColor=#ff0000;rounded=0;exitX=0.5;exitY=1;exitDx=0;exitDy=0;entryX=0.5;entryY=0;entryDx=0;entryDy=0;" edge="1" source="m0M_s_L7UmJVFSEreQ84-13" parent="1" target="m0M_s_L7UmJVFSEreQ84-16">
          <mxGeometry relative="1" as="geometry">
            <mxPoint x="190" y="260" as="targetPoint" />
            <mxPoint x="80.00000000000011" y="240" as="sourcePoint" />
            <Array as="points">
              <mxPoint x="80" y="260" />
              <mxPoint x="80" y="260" />
            </Array>
          </mxGeometry>
        </mxCell>
        <mxCell id="m0M_s_L7UmJVFSEreQ84-15" value="" style="edgeStyle=orthogonalEdgeStyle;html=1;verticalAlign=bottom;endArrow=open;endSize=8;strokeColor=#ff0000;rounded=0;entryX=0.5;entryY=0;entryDx=0;entryDy=0;" edge="1" parent="1" source="m0M_s_L7UmJVFSEreQ84-12" target="m0M_s_L7UmJVFSEreQ84-13">
          <mxGeometry relative="1" as="geometry">
            <mxPoint x="80" y="170" as="targetPoint" />
            <mxPoint x="80" y="110" as="sourcePoint" />
            <Array as="points">
              <mxPoint x="80" y="110" />
              <mxPoint x="80" y="110" />
            </Array>
          </mxGeometry>
        </mxCell>
        <mxCell id="m0M_s_L7UmJVFSEreQ84-16" value="" style="rhombus;whiteSpace=wrap;html=1;fontColor=#000000;fillColor=#ffffc0;strokeColor=#ff0000;" vertex="1" parent="1">
          <mxGeometry x="40" y="310" width="80" height="40" as="geometry" />
        </mxCell>
        <mxCell id="m0M_s_L7UmJVFSEreQ84-19" value="" style="edgeStyle=orthogonalEdgeStyle;html=1;verticalAlign=bottom;endArrow=open;endSize=8;strokeColor=#ff0000;rounded=0;exitX=0.5;exitY=1;exitDx=0;exitDy=0;entryX=0.5;entryY=0;entryDx=0;entryDy=0;" edge="1" parent="1" source="m0M_s_L7UmJVFSEreQ84-16" target="m0M_s_L7UmJVFSEreQ84-20">
          <mxGeometry relative="1" as="geometry">
            <mxPoint x="79.66" y="380" as="targetPoint" />
            <mxPoint x="79.66" y="320" as="sourcePoint" />
          </mxGeometry>
        </mxCell>
        <mxCell id="m0M_s_L7UmJVFSEreQ84-20" value="Trinh bay thong tin muon tra" style="rounded=1;whiteSpace=wrap;html=1;arcSize=40;fontColor=#000000;fillColor=#ffffc0;strokeColor=#ff0000;" vertex="1" parent="1">
          <mxGeometry x="20" y="500" width="120" height="40" as="geometry" />
        </mxCell>
        <mxCell id="m0M_s_L7UmJVFSEreQ84-21" value="Chon loai tim kiem" style="rounded=1;whiteSpace=wrap;html=1;arcSize=40;fontColor=#000000;fillColor=#ffffc0;strokeColor=#ff0000;" vertex="1" parent="1">
          <mxGeometry x="170" y="230" width="120" height="40" as="geometry" />
        </mxCell>
        <mxCell id="m0M_s_L7UmJVFSEreQ84-22" value="" style="edgeStyle=orthogonalEdgeStyle;html=1;verticalAlign=bottom;endArrow=open;endSize=8;strokeColor=#ff0000;rounded=0;exitX=0.5;exitY=1;exitDx=0;exitDy=0;entryX=0.5;entryY=0;entryDx=0;entryDy=0;" edge="1" parent="1" source="m0M_s_L7UmJVFSEreQ84-21" target="m0M_s_L7UmJVFSEreQ84-23">
          <mxGeometry relative="1" as="geometry">
            <mxPoint x="230" y="270" as="targetPoint" />
            <mxPoint x="230.0000000000001" y="240" as="sourcePoint" />
            <Array as="points" />
          </mxGeometry>
        </mxCell>
        <mxCell id="m0M_s_L7UmJVFSEreQ84-23" value="Nhap thong tin can truy van" style="rounded=1;whiteSpace=wrap;html=1;arcSize=40;fontColor=#000000;fillColor=#ffffc0;strokeColor=#ff0000;" vertex="1" parent="1">
          <mxGeometry x="170" y="310" width="120" height="40" as="geometry" />
        </mxCell>
        <mxCell id="m0M_s_L7UmJVFSEreQ84-24" value="" style="edgeStyle=orthogonalEdgeStyle;html=1;verticalAlign=bottom;endArrow=open;endSize=8;strokeColor=#ff0000;rounded=0;exitX=0.5;exitY=1;exitDx=0;exitDy=0;entryX=0.5;entryY=0;entryDx=0;entryDy=0;" edge="1" parent="1" source="m0M_s_L7UmJVFSEreQ84-23" target="m0M_s_L7UmJVFSEreQ84-26">
          <mxGeometry relative="1" as="geometry">
            <mxPoint x="360" y="460" as="targetPoint" />
            <mxPoint x="360.0000000000001" y="430" as="sourcePoint" />
            <Array as="points">
              <mxPoint x="230" y="360" />
              <mxPoint x="230" y="360" />
            </Array>
          </mxGeometry>
        </mxCell>
        <mxCell id="m0M_s_L7UmJVFSEreQ84-25" value="" style="edgeStyle=orthogonalEdgeStyle;html=1;verticalAlign=bottom;endArrow=open;endSize=8;strokeColor=#ff0000;rounded=0;entryX=0.5;entryY=0;entryDx=0;entryDy=0;" edge="1" parent="1" source="m0M_s_L7UmJVFSEreQ84-12" target="m0M_s_L7UmJVFSEreQ84-44">
          <mxGeometry relative="1" as="geometry">
            <mxPoint x="390" y="180" as="targetPoint" />
            <mxPoint x="390" y="120" as="sourcePoint" />
            <Array as="points">
              <mxPoint x="160" y="130" />
              <mxPoint x="230" y="130" />
            </Array>
          </mxGeometry>
        </mxCell>
        <mxCell id="m0M_s_L7UmJVFSEreQ84-26" value="Liet ke danh sách kết quả" style="rounded=1;whiteSpace=wrap;html=1;arcSize=40;fontColor=#000000;fillColor=#ffffc0;strokeColor=#ff0000;" vertex="1" parent="1">
          <mxGeometry x="170" y="410" width="120" height="40" as="geometry" />
        </mxCell>
        <mxCell id="m0M_s_L7UmJVFSEreQ84-27" value="" style="edgeStyle=orthogonalEdgeStyle;html=1;verticalAlign=bottom;endArrow=open;endSize=8;strokeColor=#ff0000;rounded=0;exitX=0.5;exitY=1;exitDx=0;exitDy=0;entryX=0.5;entryY=0;entryDx=0;entryDy=0;" edge="1" parent="1" source="m0M_s_L7UmJVFSEreQ84-26" target="m0M_s_L7UmJVFSEreQ84-28">
          <mxGeometry relative="1" as="geometry">
            <mxPoint x="230" y="490" as="targetPoint" />
            <mxPoint x="230.0000000000001" y="460" as="sourcePoint" />
            <Array as="points" />
          </mxGeometry>
        </mxCell>
        <mxCell id="m0M_s_L7UmJVFSEreQ84-28" value="Chon 1 thanh phan" style="rounded=1;whiteSpace=wrap;html=1;arcSize=40;fontColor=#000000;fillColor=#ffffc0;strokeColor=#ff0000;" vertex="1" parent="1">
          <mxGeometry x="170" y="500" width="120" height="40" as="geometry" />
        </mxCell>
        <mxCell id="m0M_s_L7UmJVFSEreQ84-29" value="" style="edgeStyle=orthogonalEdgeStyle;html=1;verticalAlign=bottom;endArrow=open;endSize=8;strokeColor=#ff0000;rounded=0;exitX=0.5;exitY=1;exitDx=0;exitDy=0;entryX=0.5;entryY=0;entryDx=0;entryDy=0;" edge="1" parent="1" source="m0M_s_L7UmJVFSEreQ84-28" target="m0M_s_L7UmJVFSEreQ84-33">
          <mxGeometry relative="1" as="geometry">
            <mxPoint x="230" y="600" as="targetPoint" />
            <mxPoint x="230.0000000000001" y="570" as="sourcePoint" />
            <Array as="points" />
          </mxGeometry>
        </mxCell>
        <mxCell id="m0M_s_L7UmJVFSEreQ84-59" value="[Muon sach]" style="edgeStyle=orthogonalEdgeStyle;shape=wire;rounded=0;orthogonalLoop=1;jettySize=auto;html=1;exitX=1;exitY=0.5;exitDx=0;exitDy=0;entryX=0;entryY=0.5;entryDx=0;entryDy=0;dashed=1;strokeColor=light-dark(#ff0000, #ededed);endArrow=open;endFill=0;" edge="1" parent="1" source="m0M_s_L7UmJVFSEreQ84-33" target="m0M_s_L7UmJVFSEreQ84-58">
          <mxGeometry relative="1" as="geometry" />
        </mxCell>
        <mxCell id="m0M_s_L7UmJVFSEreQ84-33" value="" style="rhombus;whiteSpace=wrap;html=1;fontColor=#000000;fillColor=#ffffc0;strokeColor=#ff0000;" vertex="1" parent="1">
          <mxGeometry x="190" y="610" width="80" height="40" as="geometry" />
        </mxCell>
        <mxCell id="m0M_s_L7UmJVFSEreQ84-34" value="[xem lịch sử&lt;div&gt;&amp;nbsp;muốn xóa]&lt;/div&gt;" style="edgeStyle=orthogonalEdgeStyle;html=1;align=left;verticalAlign=bottom;endArrow=open;endSize=8;strokeColor=#ff0000;rounded=0;exitX=0;exitY=0.5;exitDx=0;exitDy=0;entryX=1;entryY=0.5;entryDx=0;entryDy=0;" edge="1" source="m0M_s_L7UmJVFSEreQ84-33" parent="1" target="m0M_s_L7UmJVFSEreQ84-16">
          <mxGeometry x="-0.6341" y="25" relative="1" as="geometry">
            <mxPoint x="370" y="630" as="targetPoint" />
            <mxPoint as="offset" />
          </mxGeometry>
        </mxCell>
        <mxCell id="m0M_s_L7UmJVFSEreQ84-35" value="[else]" style="edgeStyle=orthogonalEdgeStyle;html=1;align=left;verticalAlign=top;endArrow=open;endSize=8;strokeColor=#ff0000;rounded=0;entryX=0.5;entryY=0;entryDx=0;entryDy=0;" edge="1" source="m0M_s_L7UmJVFSEreQ84-33" parent="1" target="m0M_s_L7UmJVFSEreQ84-37">
          <mxGeometry x="-1" relative="1" as="geometry">
            <mxPoint x="230" y="710" as="targetPoint" />
          </mxGeometry>
        </mxCell>
        <mxCell id="m0M_s_L7UmJVFSEreQ84-37" value="Trình bày thông itin sách" style="rounded=1;whiteSpace=wrap;html=1;arcSize=40;fontColor=#000000;fillColor=#ffffc0;strokeColor=#ff0000;" vertex="1" parent="1">
          <mxGeometry x="170" y="710" width="120" height="40" as="geometry" />
        </mxCell>
        <mxCell id="m0M_s_L7UmJVFSEreQ84-38" value="" style="edgeStyle=orthogonalEdgeStyle;html=1;verticalAlign=bottom;endArrow=open;endSize=8;strokeColor=#ff0000;rounded=0;exitX=0.5;exitY=1;exitDx=0;exitDy=0;entryX=0.5;entryY=0;entryDx=0;entryDy=0;" edge="1" parent="1" source="m0M_s_L7UmJVFSEreQ84-37" target="m0M_s_L7UmJVFSEreQ84-39">
          <mxGeometry relative="1" as="geometry">
            <mxPoint x="230" y="810" as="targetPoint" />
            <mxPoint x="230.0000000000001" y="800" as="sourcePoint" />
            <Array as="points" />
          </mxGeometry>
        </mxCell>
        <mxCell id="m0M_s_L7UmJVFSEreQ84-39" value="Condition" style="rhombus;whiteSpace=wrap;html=1;fontColor=#000000;fillColor=#ffffc0;strokeColor=#ff0000;" vertex="1" parent="1">
          <mxGeometry x="190" y="820" width="80" height="40" as="geometry" />
        </mxCell>
        <mxCell id="m0M_s_L7UmJVFSEreQ84-40" value="[tìm kiếm lần nữa]" style="edgeStyle=orthogonalEdgeStyle;html=1;align=left;verticalAlign=bottom;endArrow=open;endSize=8;strokeColor=#ff0000;rounded=0;entryX=1;entryY=0.5;entryDx=0;entryDy=0;" edge="1" source="m0M_s_L7UmJVFSEreQ84-39" parent="1" target="m0M_s_L7UmJVFSEreQ84-44">
          <mxGeometry x="-0.9759" y="-20" relative="1" as="geometry">
            <mxPoint x="370" y="840" as="targetPoint" />
            <Array as="points">
              <mxPoint x="320" y="840" />
              <mxPoint x="320" y="170" />
            </Array>
            <mxPoint as="offset" />
          </mxGeometry>
        </mxCell>
        <mxCell id="m0M_s_L7UmJVFSEreQ84-41" value="[else]" style="edgeStyle=orthogonalEdgeStyle;html=1;align=left;verticalAlign=top;endArrow=open;endSize=8;strokeColor=#ff0000;rounded=0;entryX=1;entryY=0.5;entryDx=0;entryDy=0;" edge="1" source="m0M_s_L7UmJVFSEreQ84-39" parent="1" target="m0M_s_L7UmJVFSEreQ84-42">
          <mxGeometry x="-0.3684" relative="1" as="geometry">
            <mxPoint x="230" y="920" as="targetPoint" />
            <mxPoint as="offset" />
          </mxGeometry>
        </mxCell>
        <mxCell id="m0M_s_L7UmJVFSEreQ84-42" value="" style="ellipse;html=1;shape=endState;fillColor=#000000;strokeColor=#ff0000;" vertex="1" parent="1">
          <mxGeometry x="65" y="825" width="30" height="30" as="geometry" />
        </mxCell>
        <mxCell id="m0M_s_L7UmJVFSEreQ84-43" value="" style="edgeStyle=orthogonalEdgeStyle;html=1;verticalAlign=bottom;endArrow=open;endSize=8;strokeColor=#ff0000;rounded=0;exitX=0.5;exitY=1;exitDx=0;exitDy=0;entryX=0.5;entryY=0;entryDx=0;entryDy=0;" edge="1" parent="1" source="m0M_s_L7UmJVFSEreQ84-20" target="m0M_s_L7UmJVFSEreQ84-42">
          <mxGeometry relative="1" as="geometry">
            <mxPoint x="70" y="580" as="targetPoint" />
            <mxPoint x="70" y="500" as="sourcePoint" />
          </mxGeometry>
        </mxCell>
        <mxCell id="m0M_s_L7UmJVFSEreQ84-44" value="" style="rhombus;whiteSpace=wrap;html=1;fontColor=#000000;fillColor=#ffffc0;strokeColor=#ff0000;" vertex="1" parent="1">
          <mxGeometry x="190" y="150" width="80" height="40" as="geometry" />
        </mxCell>
        <mxCell id="m0M_s_L7UmJVFSEreQ84-45" value="" style="edgeStyle=orthogonalEdgeStyle;html=1;align=left;verticalAlign=bottom;endArrow=open;endSize=8;strokeColor=#ff0000;rounded=0;entryX=0.5;entryY=0;entryDx=0;entryDy=0;" edge="1" source="m0M_s_L7UmJVFSEreQ84-44" parent="1" target="m0M_s_L7UmJVFSEreQ84-21">
          <mxGeometry x="-0.5" y="60" relative="1" as="geometry">
            <mxPoint x="540" y="150" as="targetPoint" />
            <mxPoint as="offset" />
          </mxGeometry>
        </mxCell>
        <mxCell id="m0M_s_L7UmJVFSEreQ84-47" value="Trinh bay thong tin muon tra" style="rounded=1;whiteSpace=wrap;html=1;arcSize=40;fontColor=#000000;fillColor=#ffffc0;strokeColor=#ff0000;" vertex="1" parent="1">
          <mxGeometry x="340" y="155" width="120" height="40" as="geometry" />
        </mxCell>
        <mxCell id="m0M_s_L7UmJVFSEreQ84-48" value="" style="ellipse;html=1;shape=endState;fillColor=#000000;strokeColor=#ff0000;" vertex="1" parent="1">
          <mxGeometry x="385" y="250" width="30" height="30" as="geometry" />
        </mxCell>
        <mxCell id="m0M_s_L7UmJVFSEreQ84-49" value="" style="edgeStyle=orthogonalEdgeStyle;html=1;verticalAlign=bottom;endArrow=open;endSize=8;strokeColor=#ff0000;rounded=0;exitX=0.5;exitY=1;exitDx=0;exitDy=0;entryX=0.5;entryY=0;entryDx=0;entryDy=0;" edge="1" parent="1" source="m0M_s_L7UmJVFSEreQ84-47" target="m0M_s_L7UmJVFSEreQ84-48">
          <mxGeometry relative="1" as="geometry">
            <mxPoint x="390" y="235" as="targetPoint" />
            <mxPoint x="390" y="155" as="sourcePoint" />
          </mxGeometry>
        </mxCell>
        <mxCell id="m0M_s_L7UmJVFSEreQ84-50" value="" style="edgeStyle=orthogonalEdgeStyle;html=1;verticalAlign=bottom;endArrow=open;endSize=8;strokeColor=#ff0000;rounded=0;entryX=0.5;entryY=0;entryDx=0;entryDy=0;" edge="1" parent="1" source="m0M_s_L7UmJVFSEreQ84-12" target="m0M_s_L7UmJVFSEreQ84-47">
          <mxGeometry relative="1" as="geometry">
            <mxPoint x="560" y="154" as="targetPoint" />
            <mxPoint x="490" y="100" as="sourcePoint" />
            <Array as="points">
              <mxPoint x="280" y="130" />
              <mxPoint x="400" y="130" />
            </Array>
          </mxGeometry>
        </mxCell>
        <mxCell id="m0M_s_L7UmJVFSEreQ84-53" style="rounded=0;orthogonalLoop=1;jettySize=auto;html=1;exitX=0.5;exitY=1;exitDx=0;exitDy=0;exitPerimeter=0;entryX=0.75;entryY=0;entryDx=0;entryDy=0;dashed=1;dashPattern=8 8;endArrow=none;endFill=0;" edge="1" parent="1" source="m0M_s_L7UmJVFSEreQ84-52" target="m0M_s_L7UmJVFSEreQ84-47">
          <mxGeometry relative="1" as="geometry" />
        </mxCell>
        <mxCell id="m0M_s_L7UmJVFSEreQ84-52" value="Xem them chi tiet trong AD cua &quot;NV tiep tan&quot;" style="shape=note;whiteSpace=wrap;html=1;backgroundOutline=1;darkOpacity=0.05;" vertex="1" parent="1">
          <mxGeometry x="370" y="20" width="135" height="50" as="geometry" />
        </mxCell>
        <mxCell id="m0M_s_L7UmJVFSEreQ84-54" value="" style="ellipse;html=1;shape=endState;fillColor=#000000;strokeColor=#ff0000;" vertex="1" parent="1">
          <mxGeometry x="522.5" y="715" width="30" height="30" as="geometry" />
        </mxCell>
        <mxCell id="m0M_s_L7UmJVFSEreQ84-55" value="" style="edgeStyle=orthogonalEdgeStyle;html=1;verticalAlign=bottom;endArrow=open;endSize=8;strokeColor=#ff0000;rounded=0;exitX=0.5;exitY=1;exitDx=0;exitDy=0;entryX=0.5;entryY=0;entryDx=0;entryDy=0;" edge="1" parent="1" target="m0M_s_L7UmJVFSEreQ84-54" source="m0M_s_L7UmJVFSEreQ84-58">
          <mxGeometry relative="1" as="geometry">
            <mxPoint x="540" y="685" as="targetPoint" />
            <mxPoint x="550" y="645" as="sourcePoint" />
          </mxGeometry>
        </mxCell>
        <mxCell id="m0M_s_L7UmJVFSEreQ84-56" style="rounded=0;orthogonalLoop=1;jettySize=auto;html=1;exitX=0.5;exitY=1;exitDx=0;exitDy=0;exitPerimeter=0;entryX=0.645;entryY=-0.028;entryDx=0;entryDy=0;dashed=1;dashPattern=8 8;entryPerimeter=0;endArrow=none;endFill=0;" edge="1" parent="1" source="m0M_s_L7UmJVFSEreQ84-57" target="m0M_s_L7UmJVFSEreQ84-58">
          <mxGeometry relative="1" as="geometry">
            <mxPoint x="530" y="535" as="targetPoint" />
          </mxGeometry>
        </mxCell>
        <mxCell id="m0M_s_L7UmJVFSEreQ84-57" value="Xem them chi tiet trong AD cua &quot;Thanh vien&quot;" style="shape=note;whiteSpace=wrap;html=1;backgroundOutline=1;darkOpacity=0.05;" vertex="1" parent="1">
          <mxGeometry x="477.5" y="510" width="135" height="50" as="geometry" />
        </mxCell>
        <mxCell id="m0M_s_L7UmJVFSEreQ84-58" value="Trinh bay thong tin muon tra" style="rounded=1;whiteSpace=wrap;html=1;arcSize=40;fontColor=#000000;fillColor=#ffffc0;strokeColor=#ff0000;" vertex="1" parent="1">
          <mxGeometry x="477.5" y="610" width="120" height="40" as="geometry" />
        </mxCell>
      </root>
    </mxGraphModel>
  </diagram>
</mxfile>
